<svg xmlns="http://www.w3.org/2000/svg" viewBox="0 9 291.54998779296875 37.599998474121094" data-asc="0.92" width="291.54998779296875" height="37.599998474121094"><defs/><g fill="#ffffff"><g transform="translate(0, 0)"><path d="M9.50 46L0 12.15L4.70 10.65L12.60 40.95L20.05 14.65L26 14.65L33.40 40.95L41.25 10.80L45.65 12.15L36.20 46L30.30 46L22.90 19.70L15.40 46L9.50 46ZM50.40 46L50.40 9L54.90 9L54.90 24.15Q56.30 22.10 58.45 20.75Q60.60 19.40 63.50 19.40Q67.90 19.40 70.08 22.05Q72.25 24.70 72.25 29.05L72.25 46L67.75 46L67.75 29.55Q67.75 26.75 66.45 25.05Q65.15 23.35 62.80 23.35Q60.50 23.35 58.43 24.97Q56.35 26.60 54.90 28.80L54.90 46L50.40 46ZM89.95 46.60Q86.70 46.60 84.05 44.95Q81.40 43.30 79.83 40.27Q78.25 37.25 78.25 33.15Q78.25 29.25 79.83 26.15Q81.40 23.05 84.17 21.22Q86.95 19.40 90.55 19.40Q92.80 19.40 94.63 20.17Q96.45 20.95 97.80 22.10L97.80 20L101.90 20L101.90 39.70Q101.90 41.60 102.83 42.17Q103.75 42.75 104.85 42.75L103.90 46.25Q99.10 46.25 98.10 42.35Q96.95 43.95 94.97 45.27Q93 46.60 89.95 46.60M90.95 42.60Q92.85 42.60 94.55 41.67Q96.25 40.75 97.40 39.35L97.40 25.40Q96.05 24.45 94.42 23.88Q92.80 23.30 91 23.30Q88.60 23.30 86.78 24.52Q84.95 25.75 83.90 27.93Q82.85 30.10 82.85 33Q82.85 35.80 83.90 37.98Q84.95 40.15 86.80 41.38Q88.65 42.60 90.95 42.60ZM119.95 46.60Q116.20 46.60 114.02 44.13Q111.85 41.65 111.85 37.05L111.85 24.85L107.35 24.85L107.35 20.95L111.95 20.95L112.90 12.75L116.35 12.75L116.35 20.95L123.55 20.95L123.55 24.85L116.35 24.85L116.35 37.40Q116.35 40.30 117.57 41.45Q118.80 42.60 120.50 42.60Q121.75 42.60 122.88 42.20Q124 41.80 124.95 41.25L126.20 44.85Q125.20 45.45 123.50 46.02Q121.80 46.60 119.95 46.60ZM151.95 46L142.45 12.15L147.15 10.65L155.05 40.95L162.50 14.65L168.45 14.65L175.85 40.95L183.70 10.80L188.10 12.15L178.65 46L172.75 46L165.35 19.70L157.85 46L151.95 46ZM201.75 46.60Q196.15 46.60 192.88 43.02Q189.60 39.45 189.60 33Q189.60 29.10 191.07 26.02Q192.55 22.95 195.20 21.17Q197.85 19.40 201.35 19.40Q205.10 19.40 207.57 21.02Q210.05 22.65 211.30 25.40Q212.55 28.15 212.55 31.45Q212.55 33.20 212.40 34.85L194.20 34.85Q194.65 38.50 196.75 40.55Q198.85 42.60 202.30 42.60Q204.55 42.60 206.35 42.13Q208.15 41.65 209.80 40.90L210.85 44.75Q209.05 45.55 206.80 46.08Q204.55 46.60 201.75 46.60M194.15 31.20L208.40 31.20Q208.40 27.40 206.50 25.35Q204.60 23.30 201.25 23.30Q198.35 23.30 196.45 25.32Q194.55 27.35 194.15 31.20ZM243.25 46.40Q240.40 46.40 238.28 46.25Q236.15 46.10 234.05 45.90L234.05 11.10Q236.40 10.85 238.65 10.73Q240.90 10.60 243.80 10.60Q248.30 10.60 251.58 12Q254.85 13.40 256.98 15.85Q259.10 18.30 260.13 21.52Q261.15 24.75 261.15 28.45Q261.15 32.10 260.10 35.35Q259.05 38.60 256.88 41.08Q254.70 43.55 251.33 44.98Q247.95 46.40 243.25 46.40M243.40 42.25Q247.90 42.25 250.75 40.50Q253.60 38.75 254.95 35.63Q256.30 32.50 256.30 28.45Q256.30 24.85 254.95 21.70Q253.60 18.55 250.80 16.63Q248 14.70 243.65 14.70Q242.20 14.70 241 14.77Q239.80 14.85 238.80 14.95L238.80 42Q239.85 42.15 241 42.20Q242.15 42.25 243.40 42.25ZM278.60 46.60Q274.90 46.60 271.95 44.88Q269.00 43.15 267.33 40.08Q265.65 37 265.65 33Q265.65 28.80 267.35 25.75Q269.05 22.70 272.00 21.05Q274.95 19.40 278.60 19.40Q282.25 19.40 285.18 21.05Q288.10 22.70 289.83 25.72Q291.55 28.75 291.55 32.90Q291.55 37.05 289.85 40.13Q288.15 43.20 285.23 44.90Q282.30 46.60 278.60 46.60M278.60 42.60Q282.55 42.60 284.75 39.92Q286.95 37.25 286.95 33Q286.95 30.40 285.85 28.22Q284.75 26.05 282.88 24.72Q281.00 23.40 278.60 23.40Q274.65 23.40 272.45 26Q270.25 28.60 270.25 32.90Q270.25 35.50 271.35 37.73Q272.45 39.95 274.33 41.27Q276.20 42.60 278.60 42.60Z"/></g><g transform="translate(0, 63.1)"><path d=""/></g></g></svg>